<?xml version="1.0" encoding="iso-8859-1"?>
<!-- Generator: Adobe Illustrator 21.0.0, SVG Export Plug-In . SVG Version: 6.00 Build 0)  -->
<svg xmlns="http://www.w3.org/2000/svg" xmlns:xlink="http://www.w3.org/1999/xlink" version="1.1" id="Capa_1" x="0px" y="0px" viewBox="0 0 512.764 512.764" style="enable-background:new 0 0 512.764 512.764;" xml:space="preserve" width="512" height="512">
<g fill="#fff">
	<path d="M128.964,353.019h297.904l26.901-105.48c34.541-13.876,58.995-47.712,58.995-87.156c0-51.767-42.115-93.882-93.882-93.882   c-44.614,0-82.056,31.282-91.552,73.063H96.044L67.099,30.254H0v30h44.009l70.232,265.231   c-17.804,6.129-30.636,23.035-30.636,42.893c0,25.011,20.348,45.359,45.359,45.359h16.43c-2.552,5.955-3.969,12.507-3.969,19.386   c0,27.231,22.154,49.386,49.386,49.386s49.386-22.154,49.386-49.386c0-6.878-1.417-13.43-3.969-19.386h72.655   c-2.552,5.955-3.969,12.507-3.969,19.386c0,27.231,22.154,49.386,49.386,49.386s49.386-22.154,49.386-49.386   c0-6.878-1.417-13.43-3.969-19.386h30.731v-30H128.964c-8.469,0-15.359-6.89-15.359-15.359S120.495,353.019,128.964,353.019z    M210.196,433.124c0,10.689-8.696,19.386-19.386,19.386s-19.386-8.696-19.386-19.386s8.696-19.386,19.386-19.386   S210.196,422.434,210.196,433.124z M373.685,433.124c0,10.689-8.696,19.386-19.386,19.386s-19.386-8.696-19.386-19.386   s8.696-19.386,19.386-19.386S373.685,422.434,373.685,433.124z M418.882,96.501c35.225,0,63.882,28.657,63.882,63.882   s-28.657,63.882-63.882,63.882S355,195.607,355,160.383S383.657,96.501,418.882,96.501z M325.45,169.564   c2.084,21.367,11.358,40.657,25.368,55.413v70.81h30v-49.594c11.641,5.184,24.521,8.071,38.064,8.071   c0.742,0,1.481-0.011,2.219-0.028l-17.541,68.782H144.621l-40.634-153.454H325.45z"/>
	<rect x="166.632" y="201.713" width="30" height="94.074"/>
	<rect x="228.027" y="201.713" width="30" height="94.074"/>
	<rect x="289.423" y="201.713" width="30" height="94.074"/>
	<rect x="377.28" y="145.306" width="83.203" height="30"/>
</g>
</svg>
