<?xml version="1.0" encoding="iso-8859-1"?>
<!-- Generator: Adobe Illustrator 21.0.0, SVG Export Plug-In . SVG Version: 6.00 Build 0)  -->
<svg xmlns="http://www.w3.org/2000/svg" xmlns:xlink="http://www.w3.org/1999/xlink" version="1.1" id="Capa_1" x="0px" y="0px" viewBox="0 0 511.806 511.806" style="enable-background:new 0 0 511.806 511.806;" xml:space="preserve" width="512" height="512">
<g>
	<path d="M155.703,384.866c-8.659,0-15.703-7.044-15.703-15.703c0-8.658,7.044-15.702,15.703-15.702H456.84l54.966-215.526H122.279   L93.008,27.391H0v30h69.918l71.099,268.505C123.001,332.028,110,349.101,110,369.164c0,25.2,20.502,45.702,45.703,45.702h16.878   c-2.637,6.065-4.107,12.75-4.107,19.774c0,27.446,22.329,49.774,49.774,49.774s49.773-22.329,49.773-49.774   c0-7.024-1.47-13.709-4.107-19.774h74.001c-2.636,6.065-4.107,12.75-4.107,19.774c0,27.446,22.329,49.774,49.774,49.774   s49.773-22.329,49.773-49.774c0-7.024-1.47-13.709-4.107-19.774h31.34v-30H155.703z M473.194,167.935l-39.663,155.526H171.406   l-41.183-155.526H473.194z M238.021,434.64c0,10.904-8.87,19.774-19.773,19.774s-19.774-8.871-19.774-19.774   c0-10.903,8.871-19.774,19.774-19.774S238.021,423.737,238.021,434.64z M403.356,434.64c0,10.904-8.87,19.774-19.773,19.774   s-19.774-8.871-19.774-19.774c0-10.903,8.871-19.774,19.774-19.774S403.356,423.737,403.356,434.64z"/>
	<rect x="193.965" y="200.617" width="30" height="95.136"/>
	<rect x="256.054" y="200.617" width="30" height="95.136"/>
	<rect x="318.143" y="200.617" width="30" height="95.136"/>
	<rect x="380.231" y="200.617" width="30" height="95.136"/>
</g>















</svg>
